<?xml version="1.0" encoding="utf-8"?>
<!-- Generator: Adobe Illustrator 23.0.1, SVG Export Plug-In . SVG Version: 6.00 Build 0)  -->
<svg version="1.1" id="Layer_1" xmlns="http://www.w3.org/2000/svg" xmlns:xlink="http://www.w3.org/1999/xlink" x="0px" y="0px"
	 viewBox="0 0 496 129" style="enable-background:new 0 0 496 129;" xml:space="preserve">
<style type="text/css">
	.st0{fill:#FFDA2A;}
</style>
<title>Artlist Logo</title>
<g id="Layer_2_1_">
	<g id="Layer_1-2">
		<path class="st0" d="M178.6,57c-6.5,0-12.9,1.4-18.8,4c-5.2,2.3-9.4,6.5-11.8,11.6v54.7h-23.1V37h21.2v19.3c1.5-3,3.4-5.8,5.7-8.4
			c2.1-2.4,4.5-4.6,7.1-6.5c2.4-1.7,4.9-3.2,7.7-4.2c2.4-0.9,5-1.4,7.5-1.5h2.8c0.6,0,1.2,0.1,1.8,0.2L178.6,57z"/>
		<path class="st0" d="M249.9,122.6c-3.7,1.6-7.5,3-11.4,4.1c-4.6,1.4-9.3,2.1-14.1,2.1c-3.1,0-6.1-0.4-9.1-1.2
			c-2.7-0.7-5.2-2.1-7.4-3.9c-2.2-1.9-3.9-4.2-5.1-6.9c-1.4-3.2-2-6.7-1.9-10.2V54.7H189V37h11.9V7.7H224V37h19v17.7h-19v44.1
			c0,3.2,0.8,5.5,2.5,6.8c1.7,1.4,3.9,2.1,6.1,2c2.4,0,4.8-0.4,7.1-1.2c2.3-0.8,4.1-1.5,5.5-2.1L249.9,122.6z"/>
		<path class="st0" d="M259.6,1.5h23.1v96.8c0,3.3,0.8,5.9,2.4,7.8c1.8,1.9,4.3,2.9,6.9,2.8c1.5,0,3.1-0.3,4.6-0.7
			c1.6-0.4,3.2-1,4.7-1.7l3.1,17.6c-3.5,1.6-7.1,2.8-10.9,3.4c-3.7,0.8-7.4,1.2-11.2,1.2c-7.2,0-12.8-1.9-16.8-5.8s-5.9-9.3-6-16.4
			L259.6,1.5z"/>
		<path class="st0" d="M316.5,127.3V37h23.1v90.3H316.5z"/>
		<path class="st0" d="M341.1,13.1c0.2,3.6-1.2,7-3.9,9.4c-2.5,2.3-5.7,3.6-9.1,3.5c-3.4,0.1-6.8-1.2-9.3-3.5
			c-2.6-2.4-4-5.9-3.9-9.4c0-4.1,1.3-7.3,3.9-9.6c2.5-2.3,5.9-3.6,9.3-3.5c3.4,0,6.6,1.2,9.1,3.5C339.8,5.8,341.1,8.9,341.1,13.1z"
			/>
		<path class="st0" d="M392.4,129c-7.6,0-15.1-1.2-22.2-3.6c-6.8-2.2-13.1-5.7-18.6-10.3l8.6-14.5c5,3.6,10.4,6.6,16.1,8.9
			c5,2,10.3,3,15.6,3c4.6,0,8.2-0.9,10.9-2.6c2.6-1.6,4.1-4.4,4-7.4c0.1-3.1-1.8-5.9-4.6-7.1c-4.9-2.1-10-3.8-15.2-5.2
			c-5.9-1.6-10.9-3.1-15-4.6c-3.6-1.2-6.9-2.9-10-5.1c-2.4-1.7-4.3-3.9-5.5-6.6c-1.2-2.8-1.8-5.8-1.7-8.9c-0.1-4.3,0.8-8.5,2.7-12.4
			c1.8-3.6,4.3-6.9,7.5-9.4c3.4-2.7,7.2-4.7,11.3-6c4.5-1.4,9.3-2.1,14-2.1c6.4,0,12.9,0.9,19,2.9c6,2,11.6,5.2,16.3,9.5l-9.3,14
			c-4.1-3.1-8.6-5.7-13.4-7.6c-4.1-1.6-8.4-2.4-12.8-2.4c-3.4-0.1-6.8,0.7-9.8,2.4c-2.6,1.6-4,4.2-4,7.8c-0.1,1.4,0.3,2.8,1,4
			c0.8,1.2,1.8,2.1,3,2.8c1.7,1,3.5,1.7,5.4,2.3c2.2,0.7,5,1.5,8.4,2.3c6.2,1.6,11.5,3.2,15.9,4.8c3.9,1.3,7.5,3.2,10.9,5.5
			c2.6,1.8,4.7,4.3,6.2,7.2c1.4,3,2.1,6.4,2,9.7c0,8.8-3.3,15.8-9.8,20.9C412.5,126.5,403.7,129,392.4,129z"/>
		<path class="st0" d="M496,122.6c-3.7,1.6-7.5,3-11.4,4.1c-4.6,1.4-9.3,2.1-14.1,2.1c-3.1,0-6.1-0.4-9-1.2
			c-2.7-0.7-5.2-2.1-7.4-3.9c-2.2-1.9-3.9-4.2-5.1-6.9c-1.4-3.2-2-6.7-1.9-10.2V54.7h-11.9V37h11.9V7.7h23.1V37h19v17.7h-19v44.1
			c0,3.2,0.8,5.5,2.5,6.8c1.7,1.4,3.9,2.1,6.1,2c2.4,0,4.8-0.4,7.1-1.2s4.1-1.5,5.5-2.1L496,122.6z"/>
		<path class="st0" d="M67.8,13.1H44.7L0,109.5v17.9c18,0.8,36.8,1.2,56.2,1.2s38.2-0.4,56.2-1.2v-17.9L67.8,13.1z M56.2,108.7
			c-10.4,0-20.9-0.1-31.4-0.4l31.4-67.8l31.4,67.8C77.2,108.5,66.7,108.7,56.2,108.7z"/>
	</g>
</g>
</svg>
